<svg width="111" height="111" viewBox="0 0 111 111" fill="none" xmlns="http://www.w3.org/2000/svg">
<g id="Iconsax/Bulk/binanceusd">
<path id="Vector" d="M52.725 10.8688L28.9525 34.6875C28.0275 35.6125 28.0275 37.0463 28.9525 37.9713L36.9538 45.9725C37.8788 46.8975 39.3125 46.8975 40.2375 45.9725L64.0563 22.1538C64.9813 21.2288 64.9813 19.795 64.0563 18.87L56.055 10.8688C55.604 10.4454 55.0086 10.2097 54.39 10.2097C53.7714 10.2097 53.176 10.4454 52.725 10.8688Z" fill="#3D589D"/>
<path id="Vector_2" opacity="0.4" d="M70.7625 28.9524L28.9525 70.7624C28.0275 71.6874 28.0275 73.1212 28.9525 74.0462L36.9538 82.0474C37.8788 82.9724 39.3125 82.9724 40.2375 82.0474L82.0938 40.1912C83.0188 39.2662 83.0188 37.8324 82.0938 36.9074L74.0925 28.9062C73.6409 28.4784 73.0401 28.2438 72.4181 28.2524C71.7961 28.2611 71.2021 28.5122 70.7625 28.9524Z" fill="#3D589D"/>
<path id="Vector_3" d="M88.8463 46.9992L46.99 88.8554C46.065 89.7804 46.065 91.2142 46.99 92.1392L54.9913 100.14C55.9163 101.065 57.35 101.065 58.275 100.14L100.131 58.2842C101.056 57.3592 101.056 55.9254 100.131 55.0004L92.13 46.9992C91.205 46.0742 89.725 46.0742 88.8463 46.9992Z" fill="#3D589D"/>
<path id="Vector_4" opacity="0.4" d="M18.9163 64.01L10.915 56.0088C9.99 55.0838 9.99 53.65 10.915 52.725L18.9163 44.7238C19.8413 43.7988 21.275 43.7988 22.2 44.7238L30.2013 52.725C31.1263 53.65 31.1263 55.0838 30.2013 56.0088L22.2 64.01C21.275 64.935 19.795 64.935 18.9163 64.01Z" fill="#3D589D"/>
</g>
</svg>
