<svg width="675" height="533" viewBox="0 0 675 533" fill="none" xmlns="http://www.w3.org/2000/svg">
<path opacity="0.1" d="M578.238 511.323C581.682 510.924 707.64 420.526 647.561 326.212C587.481 231.899 456.572 247.106 476.391 206.017C496.209 164.928 456.368 -32.2632 299.517 4.55648C142.666 41.3761 126.431 151.326 194.56 220.916C262.69 290.505 162.305 369.586 103.383 301.318C44.4619 233.051 -37.572 338.557 19.0437 386.26C75.6594 433.963 27.1288 574.827 578.238 511.323Z" fill="#2A94F4"/>
<path d="M498.7 395.856C498.7 395.856 488.119 423.728 485.809 434.616C483.498 445.505 483.553 456.158 483.553 456.158L463.759 451.779C463.759 451.779 468.376 393.148 472.763 389.018C477.145 384.888 498.435 386.619 498.435 386.619L498.7 395.856Z" fill="#0E538C"/>
<path d="M521.428 381.162C521.428 381.162 525.091 426.875 527.402 434.616C529.713 442.357 550.669 472.523 550.669 472.523L528.285 466.807C528.285 466.807 504.599 442.826 494.507 392.295C487.391 356.628 511.985 365.895 521.428 381.162V381.162Z" fill="#0E538C"/>
<path d="M476.496 317.369C476.496 317.369 451.267 314.202 438.995 308.74C426.722 303.274 389.721 280.599 389.721 280.599L395.735 273.322C395.735 273.322 430.356 291.173 437.168 294.754C443.981 298.336 477.424 303.673 477.424 303.673L476.496 317.369V317.369Z" fill="#FFE3CA"/>
<path d="M517.32 326.287C518.214 348.523 520.505 380.354 521.428 381.162C521.428 381.162 510.358 390.061 501.05 391.562C491.748 393.063 471.041 393.183 471.041 393.183C471.041 393.183 477.359 350.298 477.569 343.295C477.778 336.293 475.088 310.431 475.088 310.431C521.428 283.213 517.291 325.529 517.32 326.287V326.287Z" fill="#FFBE55"/>
<path d="M492.182 297.094L492.242 301.533C492.287 304.795 495.032 307.369 498.296 307.204L499.219 307.159C502.373 306.999 504.814 304.326 504.679 301.169L504.489 296.625C504.339 293.118 501.115 290.56 497.662 291.213L496.868 291.363C494.123 291.882 492.147 294.301 492.182 297.094V297.094Z" fill="#FCD2B1"/>
<path d="M482.634 270.584C482.634 270.584 477.249 285.841 481.995 294.455C486.742 303.069 504.249 299.877 507.239 287.901C513.817 261.536 490.19 262.728 482.634 270.584Z" fill="#FFE3CA"/>
<path d="M494.448 320.551C494.448 320.551 477.833 324.392 459.243 316.556L462.881 300.381L492.242 301.538C492.242 301.533 493.24 310.217 494.448 320.551V320.551Z" fill="#FFBE55"/>
<path d="M514.066 305.653C513.258 306.476 524.223 342.163 510.049 354.568C502.233 361.406 465.466 371.137 465.466 371.137C465.142 371.571 462.881 372.224 460.6 372.783C457.067 373.651 453.338 372.534 450.858 369.875C450.673 369.676 450.504 369.491 450.354 369.326C450.125 369.073 449.955 368.772 449.854 368.446C449.753 368.119 449.724 367.775 449.77 367.436C449.875 366.648 450.225 365.913 450.77 365.334C451.315 364.755 452.029 364.361 452.809 364.209C453.493 364.074 454.192 363.97 454.756 363.95C458.16 363.84 460.85 365.227 464.213 365.107L466.329 365.032C466.329 365.032 495.995 352.872 499.957 349.809C511.98 340.512 506.241 324.337 507.294 317.773L514.066 305.653V305.653Z" fill="#FCD2B1"/>
<path d="M472.463 366.324C472.463 366.324 466.04 362.438 461.987 362.224C460.151 362.129 457.072 361.067 456.108 360.109C455.145 359.146 454.376 362.872 456.013 363.451C457.65 364.029 461.708 364.942 460.785 366.997L472.463 366.324Z" fill="#FCD2B1"/>
<path d="M506.78 302.346C506.78 302.346 521.428 301.318 522.925 334.228L504.27 339.365C504.27 339.365 490.2 319.968 506.78 302.346V302.346Z" fill="#FFBE55"/>
<path d="M390.33 281.936C390.33 281.936 393.609 282.31 398.724 281.806C403.84 281.297 401.105 279.352 401.105 279.352L398.055 275.272C398.055 275.272 395.375 268.693 392.006 266.623C391.218 266.14 390.918 265.731 390.34 265.047C389.815 264.429 383.612 263.765 389.112 268.02C390.554 269.137 390.355 270.065 389.501 270.075C388.648 270.085 382.778 265.082 380.687 266.299C374.898 269.681 378.491 277.008 381.486 278.479C384.395 279.901 390.33 281.936 390.33 281.936V281.936Z" fill="#FFE3CA"/>
<path d="M510.443 266.479C510.283 266.843 509.779 266.883 509.585 266.539C508.018 263.746 502.653 255.73 493.674 257.78C484.271 259.93 479.6 266.658 477.12 265.362C476.735 265.157 476.291 265.491 476.416 265.905C476.86 267.387 477.998 269.217 480.928 268.793C481.197 268.753 481.447 268.963 481.462 269.237C481.526 270.394 481.312 273.018 478.048 272.828C477.654 272.803 477.389 273.227 477.599 273.561C478.198 274.514 479.465 275.816 481.596 274.873C481.721 274.818 481.816 274.709 481.861 274.579C482.17 273.661 483.747 269.871 488.414 270.22C488.588 270.235 488.743 270.354 488.818 270.514C489.117 271.182 490.355 272.948 495.221 273.856C500.916 274.918 502.548 279.138 500.022 282.041C499.778 282.32 499.923 282.764 500.287 282.829C501.485 283.028 503.681 282.983 504.913 280.45C506.665 276.843 509.345 280.345 508.112 282.41C506.985 284.29 507.314 290.206 504.484 293.258C504.195 293.567 504.449 294.076 504.873 294.051C506.366 293.951 508.781 293.488 510.079 291.582C512.04 288.694 517.505 284.679 515.748 276.744C514.131 269.417 512.654 266.569 515.334 264.718C515.659 264.494 515.619 264 515.249 263.865C514.052 263.436 511.876 263.222 510.443 266.479V266.479Z" fill="#0B4870"/>
<path d="M307.183 214.177C307.183 214.177 326.397 240.847 336.304 249.914C344.898 257.785 367.392 268.424 374.863 272.379L376.65 273.322L379.784 267.162C379.784 267.162 349.605 246.034 343.601 241.211C337.602 236.393 320.279 210.137 320.279 210.137L307.183 214.177ZM292.709 205.713C291.726 205.109 249.324 211.918 239.762 207.868C230.2 203.818 209.034 172.749 209.034 172.749L202.486 168.779C199.88 167.198 197.775 164.912 196.417 162.185L195.029 159.402C193.557 156.444 195.718 152.972 199.027 152.987L205.101 154.843C207.431 155.554 209.542 156.846 211.235 158.597C212.928 160.348 214.147 162.501 214.778 164.853L215.327 166.898C215.327 166.898 240.506 193.603 244.778 196.216C249.045 198.83 269.906 192.66 276.539 192.211L292.709 205.713V205.713Z" fill="#B97A59"/>
<path d="M232.5 299.742C232.5 299.742 276.689 295.832 296.692 258.129L270.525 259.955C270.525 259.955 219.884 288.046 216.031 293.428C212.178 298.809 222.963 366.269 222.963 366.269H233.554L232.5 299.742V299.742Z" fill="#0E538C"/>
<path d="M270.525 259.955C270.525 259.955 276.305 327.394 289.396 353.181C302.491 378.968 319.051 415.149 319.051 415.149L331.922 411.683L303.26 336.243C303.26 336.243 299.836 300.061 300.565 295.443C301.294 290.824 308.156 272.364 301.224 258.124L270.525 259.955V259.955Z" fill="#0E538C"/>
<path d="M256.566 195.538L258.058 211.613C258.058 211.613 270.291 213.309 270.141 214.052C265.619 235.844 258.158 266.873 257.115 267.516C257.115 267.516 268.913 268.584 277.847 271.586C286.78 274.589 303.844 283.218 303.844 283.218C303.844 283.218 305.636 244.268 306.579 237.33C307.517 230.387 314.4 205.314 314.4 205.314C290.843 182.196 256.566 195.538 256.566 195.538Z" fill="#FFBE55"/>
<path d="M299.711 189.353L298.928 193.722C298.349 196.934 295.22 199.024 292.031 198.326L291.127 198.127C288.038 197.453 286.072 194.416 286.72 191.323L289.016 180.355L296.028 182.924C298.653 183.896 300.206 186.605 299.711 189.353V189.353Z" fill="#A86D52"/>
<path d="M315.103 167.666C315.103 167.666 313.416 185.652 306.075 192.201C298.733 198.75 283.936 187.697 285.089 175.412C287.644 148.354 310.582 157.746 315.103 167.666V167.666Z" fill="#B97A59"/>
<path d="M302.062 196.326C302.062 196.326 317.699 203.129 327.955 220.492L315.388 231.315L301.219 217.748C301.224 217.748 296.872 205.339 302.062 196.326V196.326Z" fill="#FFBE55"/>
<path d="M40.7488 532.93C40.7488 532.93 114.498 374.229 201.343 374.344C301.927 374.474 229.651 429.19 330.744 432.078C431.838 434.965 631.675 494.888 631.675 494.888L675 532.925H40.7488V532.93Z" fill="#CCE9FF"/>
<path d="M224.984 366.264L224.241 366.698C220.048 369.142 215.492 370.873 210.78 372.025C201.038 374.399 200.1 379.162 200.1 379.162C199.736 379.821 202.77 381.676 203.519 381.616L219.434 378.155C222.157 377.562 224.954 377.387 227.729 377.636L232.211 378.035C234.292 377.995 235.809 376.055 235.34 374.025L233.553 366.264H224.984V366.264ZM319.051 415.144C319.051 415.144 315.393 428.471 305.281 427.609C305.281 427.609 299.707 436.512 314.814 434.247C320.593 433.379 321.811 425.878 333.879 427.753C337.212 428.272 339.079 424.292 339.079 424.292C340.337 419.977 336.998 417.478 334.033 414.097L331.922 411.683L319.051 415.144V415.144ZM183.171 376.928L178.101 376.554L209.782 77.0037L214.848 77.3778L183.171 376.928Z" fill="#0B4870"/>
<path d="M209.722 79.9864C209.722 79.9864 169.596 49.4463 153.451 69.8014C132.14 96.6655 117.737 86.5054 110.306 78.3255C110.306 78.3255 116.834 94.6255 89.3743 120.502C89.3743 120.502 125.687 147.032 145.95 130.672C166.208 114.312 200.35 132.627 204.502 145.296L209.722 79.9864V79.9864Z" fill="#FFBE55"/>
<path d="M377.069 274.813C377.069 274.813 374.454 272.803 371.13 268.878C367.811 264.958 371.13 265.456 371.13 265.456L376.161 264.643C376.161 264.643 382.664 261.78 386.527 262.638C387.43 262.838 387.929 262.753 388.822 262.663C389.626 262.583 394.547 266.419 387.635 265.651C385.823 265.451 385.319 266.254 385.923 266.858C386.527 267.461 394.227 267.95 394.881 270.279C396.683 276.734 388.997 279.497 385.823 278.469C382.744 277.477 377.069 274.813 377.069 274.813V274.813Z" fill="#B97A59"/>
<path d="M291.746 162.524C291.746 162.524 294.596 171.272 304.707 170.12C314.819 168.963 313.581 176.505 313.581 176.505C313.581 176.505 322.09 168.883 315.293 162.529C308.49 156.169 305.91 147.9 291.746 154.923C277.582 161.945 280.961 175.133 284.804 180.42L286.012 181.632C286.765 182.385 288.023 182.24 288.577 181.333L288.582 181.323C288.911 180.784 288.901 180.111 288.562 179.577C287.574 178.016 285.812 174.639 287.484 172.664C288.507 171.457 289.301 171.711 289.865 172.34C290.788 173.377 292.225 173.781 293.508 173.243L293.608 173.203C293.608 173.198 298.399 168.305 291.746 162.524V162.524Z" fill="#0B4870"/>
</svg>
