<svg width="180" height="170" viewBox="0 0 180 170" fill="none" xmlns="http://www.w3.org/2000/svg">
<path d="M30.5 56L1.5 2L57 25.5H30.5V56Z" stroke="#F1A300" stroke-width="3" stroke-linejoin="round"/>
<path d="M32 25L48 51C49.8333 53.6667 54.6 58.2 59 55C64.5 51 86 32.5 90.5 30.5C95 28.5 105 25 107 30.5C109 36 108.5 47.5 94 72.5C79.5 97.5 71 120.5 70 125C69 129.5 64 148 71.5 150.5C79 153 85.5 151.5 107 137.5C128.5 123.5 147 106 151 103C155 100 164 88.5 173 91C182 93.5 177.5 115.5 173 125C169.4 132.6 156.833 157.167 151 168.5" stroke="#F1A300" stroke-width="3" stroke-linejoin="round"/>
</svg>
