<svg width="28" height="28" viewBox="0 0 28 28" fill="none" xmlns="http://www.w3.org/2000/svg">
<path fill-rule="evenodd" clip-rule="evenodd" d="M14 1.16663C6.9125 1.16663 1.16666 6.91246 1.16666 14C1.16666 21.0875 6.9125 26.8333 14 26.8333C21.0875 26.8333 26.8333 21.0875 26.8333 14C26.8333 6.91246 21.0875 1.16663 14 1.16663ZM19.5627 11.83C19.6651 11.7129 19.7431 11.5765 19.792 11.4288C19.841 11.2812 19.8599 11.1252 19.8476 10.9701C19.8354 10.815 19.7923 10.664 19.7208 10.5258C19.6494 10.3876 19.551 10.2651 19.4315 10.1655C19.312 10.0659 19.1737 9.99125 19.0249 9.94587C18.8761 9.90048 18.7198 9.88532 18.565 9.90126C18.4103 9.9172 18.2603 9.96393 18.1239 10.0387C17.9874 10.1135 17.8674 10.2148 17.7707 10.3366L12.754 16.3555L10.1582 13.7585C9.93813 13.5459 9.64343 13.4283 9.33753 13.431C9.03163 13.4337 8.73902 13.5564 8.52271 13.7727C8.3064 13.989 8.1837 14.2816 8.18104 14.5875C8.17839 14.8934 8.29598 15.1881 8.5085 15.4081L12.0085 18.9081C12.1231 19.0227 12.2604 19.1121 12.4115 19.1707C12.5626 19.2293 12.7242 19.2557 12.8861 19.2484C13.048 19.241 13.2066 19.2 13.3518 19.128C13.497 19.0559 13.6256 18.9544 13.7293 18.83L19.5627 11.83Z" fill="#020E8A"/>
</svg>
