<svg width="29" height="29" viewBox="0 0 29 29" fill="none" xmlns="http://www.w3.org/2000/svg">
<path d="M14.5 27.1875C21.5071 27.1875 27.1875 21.5071 27.1875 14.5C27.1875 7.49289 21.5071 1.8125 14.5 1.8125C7.49289 1.8125 1.8125 7.49289 1.8125 14.5C1.8125 21.5071 7.49289 27.1875 14.5 27.1875Z" fill="#1560BD"/>
<path d="M13.2917 13.2917H15.7083V19.9375H13.2917V13.2917Z" fill="white"/>
<path d="M14.5 11.4792C15.3342 11.4792 16.0104 10.8029 16.0104 9.96874C16.0104 9.13456 15.3342 8.45833 14.5 8.45833C13.6658 8.45833 12.9896 9.13456 12.9896 9.96874C12.9896 10.8029 13.6658 11.4792 14.5 11.4792Z" fill="white"/>
</svg>
