<svg width="652" height="500" viewBox="0 0 652 500" fill="none" xmlns="http://www.w3.org/2000/svg">
<g filter="url(#filter0_d_55_6)">
<mask id="path-1-inside-1_55_6" fill="white">
<path d="M10 23C10 15.8203 15.8203 10 23 10H539C546.18 10 552 15.8203 552 23V433C552 440.18 546.18 446 539 446H23C15.8203 446 10 440.18 10 433V23Z"/>
</mask>
<path d="M10 23C10 15.8203 15.8203 10 23 10H539C546.18 10 552 15.8203 552 23V433C552 440.18 546.18 446 539 446H23C15.8203 446 10 440.18 10 433V23Z" fill="white"/>
<path d="M10 23C10 -18.4214 43.5786 -52 85 -52H477C518.421 -52 552 -18.4214 552 23V72C552 72 546.18 72 539 72H23C15.8203 72 10 72 10 72V23ZM552 446H10H552ZM10 446V10V446ZM552 10V446V10Z" fill="#020E8A" mask="url(#path-1-inside-1_55_6)"/>
</g>
<rect x="495" y="228" width="153" height="268" rx="22" fill="white" stroke="black" stroke-width="8"/>
<rect x="532" y="226" width="79" height="16" rx="6" fill="black"/>
<defs>
<filter id="filter0_d_55_6" x="0" y="0" width="576" height="470" filterUnits="userSpaceOnUse" color-interpolation-filters="sRGB">
<feFlood flood-opacity="0" result="BackgroundImageFix"/>
<feColorMatrix in="SourceAlpha" type="matrix" values="0 0 0 0 0 0 0 0 0 0 0 0 0 0 0 0 0 0 127 0" result="hardAlpha"/>
<feOffset dx="7" dy="7"/>
<feGaussianBlur stdDeviation="8.5"/>
<feComposite in2="hardAlpha" operator="out"/>
<feColorMatrix type="matrix" values="0 0 0 0 0 0 0 0 0 0 0 0 0 0 0 0 0 0 0.1 0"/>
<feBlend mode="normal" in2="BackgroundImageFix" result="effect1_dropShadow_55_6"/>
<feBlend mode="normal" in="SourceGraphic" in2="effect1_dropShadow_55_6" result="shape"/>
</filter>
</defs>
</svg>
