<svg width="25" height="26" viewBox="0 0 25 26" fill="none" xmlns="http://www.w3.org/2000/svg">
<path d="M11.7676 3.85938H13.2324C13.3626 3.85938 13.4277 3.92708 13.4277 4.0625V21.9375C13.4277 22.0729 13.3626 22.1406 13.2324 22.1406H11.7676C11.6374 22.1406 11.5723 22.0729 11.5723 21.9375V4.0625C11.5723 3.92708 11.6374 3.85938 11.7676 3.85938Z" fill="white" fill-opacity="0.8"/>
<path d="M4.29688 12.0352H20.7031C20.8333 12.0352 20.8984 12.1029 20.8984 12.2383V13.7617C20.8984 13.8971 20.8333 13.9648 20.7031 13.9648H4.29688C4.16667 13.9648 4.10156 13.8971 4.10156 13.7617V12.2383C4.10156 12.1029 4.16667 12.0352 4.29688 12.0352Z" fill="white" fill-opacity="0.8"/>
</svg>
