<svg width="39" height="39" viewBox="0 0 39 39" fill="none" xmlns="http://www.w3.org/2000/svg">
<path d="M19.5 0.75C14.5272 0.75 9.75805 2.72544 6.24175 6.24175C2.72544 9.75805 0.75 14.5272 0.75 19.5C0.75 24.4728 2.72544 29.2419 6.24175 32.7583C9.75805 36.2746 14.5272 38.25 19.5 38.25C24.4728 38.25 29.2419 36.2746 32.7583 32.7583C36.2746 29.2419 38.25 24.4728 38.25 19.5C38.25 14.5272 36.2746 9.75805 32.7583 6.24175C29.2419 2.72544 24.4728 0.75 19.5 0.75ZM21.375 28.875C21.375 29.3723 21.1775 29.8492 20.8258 30.2008C20.4742 30.5525 19.9973 30.75 19.5 30.75C19.0027 30.75 18.5258 30.5525 18.1742 30.2008C17.8225 29.8492 17.625 29.3723 17.625 28.875C17.625 28.3777 17.8225 27.9008 18.1742 27.5492C18.5258 27.1975 19.0027 27 19.5 27C19.9973 27 20.4742 27.1975 20.8258 27.5492C21.1775 27.9008 21.375 28.3777 21.375 28.875ZM15.75 14.8237C15.75 15.321 15.5525 15.7979 15.2008 16.1496C14.8492 16.5012 14.3723 16.6987 13.875 16.6987C13.3777 16.6987 12.9008 16.5012 12.5492 16.1496C12.1975 15.7979 12 15.321 12 14.8237C12 12.615 13.02 10.9012 14.5125 9.7875C15.9525 8.71875 17.775 8.2425 19.5 8.2425C21.225 8.2425 23.0437 8.71875 24.4875 9.7875C25.98 10.8975 27 12.615 27 14.82C27 16.4287 26.4937 17.6512 25.6237 18.5925C24.9375 19.335 24.0562 19.8412 23.4487 20.1863L23.2575 20.2987C22.5562 20.7112 22.1475 20.9925 21.87 21.3562C21.63 21.6637 21.375 22.1812 21.375 23.2463C21.375 23.7435 21.1775 24.2204 20.8258 24.5721C20.4742 24.9237 19.9973 25.1213 19.5 25.1213C19.0027 25.1213 18.5258 24.9237 18.1742 24.5721C17.8225 24.2204 17.625 23.7435 17.625 23.2463C17.625 21.5025 18.075 20.145 18.8925 19.0763C19.665 18.0638 20.6625 17.4713 21.3675 17.0588L21.4725 16.9988C22.2113 16.5713 22.59 16.35 22.8675 16.0463C23.055 15.8475 23.25 15.5512 23.25 14.82C23.2655 14.4257 23.182 14.0338 23.0071 13.6801C22.8322 13.3263 22.5715 13.0221 22.2487 12.795C21.5812 12.3 20.5875 11.9963 19.5 11.9963C18.4125 11.9963 17.4225 12.3038 16.7513 12.8025C16.429 13.03 16.1687 13.3344 15.9938 13.688C15.819 14.0416 15.7352 14.4333 15.75 14.8275V14.8237Z" fill="#1560BD"/>
</svg>
